<?xml version="1.0" encoding="UTF-8" standalone="no"?>
<!DOCTYPE svg PUBLIC "-//W3C//DTD SVG 1.1//EN" "http://www.w3.org/Graphics/SVG/1.1/DTD/svg11.dtd">
<svg width="100%" height="100%" viewBox="0 0 12 14" version="1.1" xmlns="http://www.w3.org/2000/svg" xmlns:xlink="http://www.w3.org/1999/xlink" xml:space="preserve" xmlns:serif="http://www.serif.com/" style="fill-rule:evenodd;clip-rule:evenodd;stroke-linejoin:round;stroke-miterlimit:2;">
    <g transform="matrix(0.629816,-0.776744,0.776744,0.629816,-6.46839,8.8745)">
        <g id="置顶">
            <g transform="matrix(0.169153,7.87542e-16,0,1.1485,13.4381,-3.05203)">
                <rect x="2.601" y="6.541" width="6.881" height="6.164" style="fill:rgb(40,44,52);"/>
            </g>
            <g transform="matrix(0.169153,1.21878e-15,0,1.7774,7.55996,-9.10391)">
                <rect x="2.601" y="6.541" width="6.881" height="6.164" style="fill:rgb(40,44,52);"/>
            </g>
            <g transform="matrix(-1.20994e-15,0.144437,-1.7774,1.08834e-16,23.5984,7.12729)">
                <rect x="2.601" y="6.541" width="6.881" height="6.164" style="fill:rgb(40,44,52);"/>
            </g>
            <g transform="matrix(0.858041,-1.96538e-16,3.69002e-17,0.843485,6.33742,-0.13725)">
                <g transform="matrix(-0.00226856,1.59794,-0.894431,-0.00148516,10.927,-5.19052)">
                    <path d="M11.611,8.768L7.082,8.768L8.215,4.603L10.479,4.603L11.611,8.768Z" style="fill:rgb(40,44,52);"/>
                </g>
                <g transform="matrix(-0.0173176,-1.58006,0.70564,-0.00786809,3.66898,24.5675)">
                    <path d="M11.611,8.768L7.082,8.768L8.215,4.603L10.479,4.603L11.611,8.768Z" style="fill:rgb(40,44,52);"/>
                </g>
            </g>
        </g>
    </g>
</svg>
